<svg width="294" height="86" viewBox="0 0 294 86" fill="none" xmlns="http://www.w3.org/2000/svg">
<g clip-path="url(#clip0_5083_8010)">
<path d="M0 8.37974C6.19265 11.2497 30.6705 23.0528 36.475 32.5852C38.2896 35.5743 39.539 38.6621 40.7612 41.6478C43.0728 47.323 45.255 52.6816 50.9983 57.5567C56.3825 62.0635 62.5084 65.601 69.1031 68.0117C69.9235 67.3036 72.739 64.4949 74.6965 57.8597C76.712 51.0236 83.851 50.1963 83.9225 50.1895L84.1676 50.1623L84.3685 50.3121C84.406 50.3427 88.1713 53.1514 92.7332 53.1514C93.4791 53.1521 94.2231 53.0745 94.9529 52.9199C98.1735 52.239 100.529 51.6738 102.102 51.3028C102.856 51.0912 103.622 50.9275 104.397 50.8125C104.802 50.8125 109.074 51.7045 109.544 52.1266C109.681 52.2837 109.78 52.47 109.834 52.6713C110.174 53.4918 111.093 55.6706 113.153 56.2834C115.213 56.8962 122.648 58.1627 126.304 58.1627C127.666 58.1627 127.945 57.9856 127.955 57.9788C128.724 57.2482 129.308 56.345 129.658 55.3438C129.947 54.6629 130.199 54.0467 130.801 53.8731L130.914 53.8425C131.857 53.5769 133.437 53.1309 134.141 50.8363C134.662 49.1341 134.574 48.7392 134.431 48.0618C134.317 47.5661 134.246 47.0615 134.22 46.5536C134.204 45.6435 134.252 44.7335 134.363 43.83C134.506 42.3355 134.669 40.6401 134.284 39.8775C133.631 38.5702 128.156 34.4985 127.319 34.2227C127.174 34.1888 127.025 34.1751 126.876 34.1819C126.577 34.1819 126.195 34.2125 125.8 34.2432C125.31 34.284 124.755 34.3283 124.207 34.3283C123.407 34.3696 122.609 34.2116 121.885 33.8687C121.3 33.5555 119.952 32.9733 118.529 32.3571C115.536 31.0634 113.361 30.1034 112.591 29.5246C112.074 29.0855 111.654 28.5427 111.359 27.9314C110.818 26.9883 110.256 26.0113 108.666 25.4223C107.355 24.9389 106.405 23.8495 105.568 22.8894C105.199 22.4501 104.805 22.0329 104.387 21.64C95.3172 13.6055 82.7616 7.19841 67.0502 2.5752C68.0102 3.93697 69.2801 5.70386 69.3005 5.7277L70.4342 7.30054L68.6094 6.71157C64.4356 5.3498 52.2682 2.72499 36.1618 2.72499C34.5924 2.72499 32.9991 2.74882 31.3956 2.79648C32.2164 3.33117 32.9787 3.95079 33.6698 4.64509L34.6911 5.76855L33.1693 5.69706C33.1387 5.69706 30.2756 5.56088 26.1562 5.56088C19.3576 5.56428 7.28888 5.94558 0 8.37974Z" fill="#C8C8C8"/>
<path d="M104.707 38.8325C104.707 38.8325 103.127 40.3339 104.86 42.0667C104.887 42.0395 104.911 42.0157 104.836 41.9135C103.712 40.4632 104.758 39.367 104.986 39.0368C104.904 38.9549 104.81 38.886 104.707 38.8325Z" fill="white"/>
<path d="M106.565 40.3848C106.566 40.5164 106.528 40.6452 106.455 40.7549C106.382 40.8646 106.279 40.9502 106.157 41.0009C106.036 41.0516 105.902 41.065 105.773 41.0395C105.644 41.014 105.525 40.9507 105.432 40.8576C105.339 40.7646 105.276 40.646 105.25 40.5169C105.225 40.3878 105.238 40.2541 105.289 40.1326C105.34 40.0112 105.425 39.9075 105.535 39.8348C105.645 39.7621 105.773 39.7237 105.905 39.7244C106.078 39.7295 106.243 39.8007 106.366 39.9235C106.489 40.0463 106.56 40.2113 106.565 40.3848Z" fill="white"/>
<path d="M35.8316 26.8489C35.8316 26.8489 39.076 28.8371 43.1613 37.9439C47.2467 47.0507 51.332 56.3687 62.107 61.3936C67.343 64.1171 68.0749 64.8491 68.9158 63.6984C69.7567 62.5477 71.1151 57.4172 72.2658 54.9048C73.4165 52.3923 74.0429 48.9266 78.6491 47.9053C83.2553 46.8839 83.9872 47.0678 86.7108 48.324C89.4343 49.5802 93.5196 51.1531 97.9113 49.6858C102.303 48.2185 103.981 47.2788 108.465 48.8483C112.949 50.4177 113.388 53.1413 114.746 53.6656C116.105 54.1898 125.215 56.91 126.577 55.3405C127.452 54.2649 128.067 53.0021 128.374 51.6501C128.374 51.6501 130.992 52.1744 131.411 50.4994C131.83 48.8245 130.992 47.987 130.992 47.987C130.992 47.987 130.992 47.3605 131.094 45.6856C131.196 44.0106 131.619 43.1731 131.724 42.3356C131.83 41.4981 130.992 39.8231 128.687 38.4614C126.383 37.0996 125.443 37.6239 123.873 37.2051C122.304 36.7864 110.892 31.7581 110.055 30.924C109.217 30.0899 109.531 28.4115 107.226 27.4685C104.921 26.5255 94.7691 22.9678 94.7691 22.9678C94.7691 22.9678 93.3051 20.7686 89.8496 20.0366C86.3942 19.3047 80.0109 17.6297 79.0678 16.4756C78.1248 15.3215 78.5436 16.4756 78.5436 16.4756L79.6942 21.1873C79.6942 21.1873 69.1235 19.0936 63.2611 18.7804C57.3987 18.4672 54.7806 18.2561 54.7806 18.2561L58.1306 21.1873C58.1306 21.1873 47.1377 20.5609 42.5315 22.8623C37.9253 25.1637 35.8316 26.8489 35.8316 26.8489Z" fill="#B3B4B4"/>
<path d="M19.4767 15.1614C20.4981 15.9853 34.4562 24.544 35.7261 26.43C37.7687 24.544 41.3876 22.8111 45.9394 21.9532C50.4911 21.0953 57.9536 21.3847 57.9536 21.3847L54.3585 17.9462C54.3585 17.9462 63.3053 18.0483 70.1142 19.4067C76.9231 20.7651 79.7726 21.4051 79.7726 21.4051C79.7726 21.4051 78.3597 17.1632 78.5946 16.1453C85.5056 20.3055 91.5519 18.4194 95.8687 23.2946C96.7334 23.6078 104.741 26.1202 104.741 26.1202L101.098 22.5967C101.098 22.5967 60.4695 -0.264067 19.4767 15.1614Z" fill="#DB1E35"/>
<path d="M21.2402 16.0126C21.4411 16.0296 36.6623 8.819 58.866 11.1817C89.4377 14.4363 104.387 25.9058 104.387 25.9058L102.378 23.601C102.378 23.601 96.4508 18.2527 86.9661 13.4252C78.1861 8.95517 73.9578 7.8215 73.9578 7.8215L76.0004 10.6472C71.2138 9.15603 56.1969 6.41207 49.1497 5.93545C40.9791 5.38733 39.1237 5.54394 39.9271 6.2112C40.8259 6.95677 42.3102 8.19939 41.0642 8.1347C26.146 7.35169 4.65727 8.58409 7.70082 9.78245C11.0746 11.1374 21.2402 16.0126 21.2402 16.0126Z" fill="#F37576"/>
<path d="M38.9739 29.0447C39.2871 29.3613 41.8847 31.0567 46.1436 38.4171C50.4025 45.7774 54.6547 40.487 58.2361 37.8383C66.2944 31.8738 72.0547 30.8252 72.0547 30.8252C72.0547 30.8252 56.8744 40.9806 54.7806 55.9499C51.0119 52.3922 49.5446 50.5028 47.5564 47.0507C45.5683 43.5986 38.9739 29.0447 38.9739 29.0447Z" fill="#C8C8C8"/>
<path d="M99.6884 35.7446C99.6884 35.7446 109.32 40.2487 112.67 40.0376C116.019 39.8265 117.906 39.8299 117.906 39.8299C117.906 39.8299 117.146 38.6758 113.221 38.9925C110.29 39.224 99.6884 35.7446 99.6884 35.7446Z" fill="#C8C8C8"/>
<path d="M78.5435 16.4824C80.9936 18.7209 84.0551 20.1787 87.3372 20.6699C92.9375 21.5074 93.9316 24.0198 94.4048 24.493C95.5282 25.6165 96.0798 24.8063 96.1308 24.4386C96.7572 24.5441 106.494 27.7885 107.025 29.1503C107.556 30.5121 108.472 31.7683 111.413 32.9258L123.976 37.8452L118.637 35.2306C118.637 35.2306 109.32 30.6244 109.32 29.8891C109.32 29.1537 107.958 27.2745 106.181 26.7502C104.404 26.2259 94.7691 22.9815 94.7691 22.9815C94.1218 22.051 93.2823 21.2704 92.3073 20.6925C91.3324 20.1145 90.2446 19.7527 89.1177 19.6315C85.4257 19.2592 81.8377 18.1906 78.5435 16.4824Z" fill="#C8C8C8"/>
<path d="M126.018 38.247C126.614 37.9882 129.12 39.8539 129.709 40.4837C130.298 41.1135 130.924 41.505 130.652 42.288C130.4 43.0098 130.335 44.5656 130.611 44.9571C130.887 45.3486 131.435 42.4446 131.591 42.3289C131.748 42.2131 132.221 40.5994 130.178 39.1492C128.136 37.6989 126.566 36.7661 125.899 37.0282C125.232 37.2903 122.876 37.3686 123.036 37.4606C123.196 37.5525 125.194 38.5976 126.018 38.247Z" fill="#C8C8C8"/>
<path d="M126.451 39.8538C126.451 39.8538 125.089 40.2861 126.372 42.1722C127.656 44.0582 129.355 45.9409 129.235 45.4677C129.116 44.9944 127.629 42.7441 127.629 42.7441L126.331 40.4666L126.451 39.8538Z" fill="#C8C8C8"/>
<path d="M60.4864 22.6614C50.1234 22.2427 39.1339 25.6267 37.7176 28.7315L34.8885 26.3246C34.8885 26.3246 42.3238 21.926 47.0321 21.6128C51.7405 21.2996 57.2931 21.1941 57.2931 21.1941L60.4864 22.6614Z" fill="#888B90"/>
<path d="M58.1306 21.1942C58.1306 21.1942 66.8766 20.2205 73.4131 23.0803C80.113 26.0115 87.8615 30.6177 89.2233 28.5273C89.5875 27.9656 82.2067 24.1288 82.2067 24.1288L79.6943 21.1976L55.0939 17.8477L58.1306 21.1942Z" fill="#888B90"/>
<path d="M81.5769 20.0945C81.5769 20.0945 83.8374 23.1176 86.4963 23.8121C88.9032 24.4385 91.157 24.7483 90.4761 26.1135C90.1084 26.8455 89.5331 26.4301 89.5331 26.4301C89.5331 26.4301 92.0455 28.5238 92.1476 27.3697C92.2498 26.2156 92.3451 23.7917 89.2198 22.9236C85.4546 21.875 86.2444 21.9907 81.5769 20.0945Z" fill="#888B90"/>
<path d="M97.2373 27.3186C97.0954 27.3747 96.9679 27.4618 96.8641 27.5736C96.7603 27.6853 96.6829 27.819 96.6375 27.9646C96.5921 28.1102 96.5799 28.2642 96.6018 28.4151C96.6237 28.5661 96.6791 28.7103 96.764 28.837C97.3939 29.8821 97.3939 31.506 95.9266 31.6116C95.1956 31.6954 94.4566 31.6771 93.7307 31.5571C93.7307 31.5571 101.901 36.7931 103.675 32.3946C104.485 32.3398 105.252 32.008 105.847 31.455C105.847 31.455 101.687 31.1384 100.114 29.8821C98.5412 28.6259 97.2373 27.3186 97.2373 27.3186Z" fill="#888B90"/>
<path d="M123.428 39.5405C123.428 39.5405 122.719 41.5049 125.443 43.493C124.605 42.0257 123.993 40.7967 124.132 40.0103C124.292 39.149 124.054 38.7541 123.428 39.5405Z" fill="#888B90"/>
<path d="M108.38 46.9487C112.721 48.4738 113.613 50.0875 115.189 51.034C116.765 51.9804 121.681 52.7089 122.519 51.2416C123.356 49.7743 122.1 49.6722 122.726 49.4645C123.353 49.2569 127.332 49.5667 127.543 51.6604C127.755 53.7541 127.751 55.2214 125.344 55.5346C122.937 55.8478 115.505 54.9048 114.351 53.5464C113.197 52.1881 112.258 50.0909 110.375 49.5667C108.492 49.0424 104.301 47.5785 103.151 48.2049C102 48.8313 94.3571 51.3438 90.6939 49.982C87.0308 48.6202 82.6323 46.7376 81.7948 40.7696C81.342 37.5422 82.1114 36.3745 82.1114 36.3745C82.1114 36.3745 83.8136 43.2378 89.7509 45.9069C97.9181 49.5633 102.725 44.9571 108.38 46.9487Z" fill="#888B90"/>
<path d="M58.6549 59.2998C58.6549 59.2998 55.6181 47.3673 72.0547 30.8252C55.8258 41.8181 54.0487 55.6367 54.0487 55.6367L58.6549 59.2998Z" fill="#888B90"/>
<path d="M63.3632 58.7756L67.6426 47.3129C67.6426 47.3129 68.9124 50.0875 71.4249 46.1112C73.7297 42.4616 79.2755 36.7933 82.1046 36.3745C80.6373 40.562 73.5186 49.4611 73.311 51.354C73.1033 53.2469 70.1687 64.3351 68.1805 64.1274C66.1923 63.9197 63.3632 58.7756 63.3632 58.7756Z" fill="#888B90"/>
<path d="M99.6884 35.7446C99.6884 35.7446 110.995 39.7244 113.088 39.6189C115.182 39.5133 116.411 39.2784 117.906 39.8299C119.581 40.4564 116.125 39.7244 114.556 40.8751C114.089 41.2365 113.706 41.6955 113.435 42.22C113.164 42.7445 113.011 43.3219 112.986 43.9119C112.986 43.9119 112.043 43.4931 112.67 41.6071C112.966 40.7185 111.1 39.8299 108.38 39.4112C105.997 39.0435 104.819 39.7244 103.457 40.2487C103.457 37.9439 99.6884 35.7446 99.6884 35.7446Z" fill="#888B90"/>
<path d="M115.771 46.6864C116.088 44.6063 117.344 43.8982 117.344 43.8982C116.962 44.6461 116.672 45.437 116.479 46.2541C116.306 47.5811 116.24 48.92 116.282 50.2577C115.754 49.1464 115.576 47.9011 115.771 46.6864Z" fill="#888B90"/>
<path d="M132.01 46.6354C131.71 45.2021 131.55 44.2761 132.058 43.3841C133.239 41.321 131.659 39.7618 130.356 38.7677C128.544 37.3753 127.271 36.4629 126.127 36.4629C125.936 36.4622 125.746 36.4885 125.562 36.5412C125.47 36.5651 125.011 36.6365 124.633 36.691C124.52 36.691 123.836 36.5821 121.548 35.588C111.856 31.3733 110.007 30.0286 109.769 29.603C109.664 29.3853 109.583 29.1571 109.527 28.9221C109.251 27.877 108.846 27.2812 106.463 26.3211C106.123 26.185 105.51 25.5926 104.737 24.847C101.585 21.783 94.1835 14.6576 73.9476 7.00101L71.5985 6.11585L73.2531 8.0019C73.6718 8.48533 74.1689 9.06409 74.6148 9.59178C69.5082 8.26064 55.1211 4.9209 39.1781 4.9209H37.5406L40.5535 7.64444C38.1057 7.49805 33.4042 7.27336 27.8448 7.27336C19.5176 7.27336 12.307 7.75679 6.41733 8.71003L3.95593 9.09473L6.33903 9.90839C12.3989 11.9851 33.1012 22.5286 39.1577 31.1861C40.9076 33.6815 42.1502 36.6331 43.4677 39.7312C47.1343 48.3852 51.5669 59.0922 67.7038 64.8218C67.8782 64.8848 68.0676 64.8928 68.2466 64.8447C68.4256 64.7966 68.5855 64.6947 68.7047 64.5529C71.0232 62.1698 71.6904 59.8105 72.2828 57.744C73.1135 54.823 73.8318 52.2969 78.7308 49.9342C82.9216 47.9154 84.2902 47.6975 84.6851 47.6975H84.7056C85.2094 48.1027 88.8215 50.8637 93.7749 50.8637C94.6322 50.8633 95.4874 50.7789 96.3283 50.6117C98.1655 50.2598 99.9764 49.782 101.748 49.1819C102.725 48.8414 103.266 48.678 104.032 48.678C105.107 48.7345 106.172 48.9081 107.209 49.1955C111.4 50.1828 111.921 50.8977 112.656 51.919C112.772 52.0927 112.876 52.2735 112.969 52.4603C113.677 53.8221 114.6 54.983 118.723 55.6298L118.903 55.6571C121.395 56.0452 123.039 56.3039 124.296 56.3039C125.749 56.3039 126.944 56.0622 127.612 55.2043C128.401 54.183 128.718 52.862 129.028 52.188C129.301 52.249 129.579 52.281 129.858 52.2833C130.249 52.3103 130.64 52.223 130.982 52.032C131.324 51.841 131.603 51.5545 131.785 51.2075C132.135 50.5817 132.328 49.8811 132.351 49.1648C132.356 48.9364 132.315 48.7091 132.23 48.4971C132.144 48.2851 132.016 48.093 131.853 47.9324C132.057 47.5321 132.113 47.0726 132.01 46.6354ZM35.8554 25.8139C28.0695 18.9097 14.9488 12.1587 8.93321 9.59178C15.2081 8.82188 21.5265 8.46137 27.8482 8.51257C35.9473 8.51257 42.2115 8.9926 42.2728 8.996L45.4627 9.46922L41.694 6.17373C53.3549 6.63539 64.9311 8.36365 76.2183 11.328L78.2167 11.9272L76.8788 10.3237C76.8788 10.3237 76.4158 9.7688 75.8268 9.07089C92.403 15.6244 99.5421 21.6673 102.943 24.8606L95.0823 22.1882C94.3333 21.2826 92.5391 19.6995 88.9543 19.0595L88.7602 19.0254C84.0655 18.1845 82.2918 17.8713 78.9487 15.1818L77.832 14.2865L77.9341 15.7163C77.9973 17.435 78.3891 19.1257 79.0882 20.697C66.8595 17.8577 54.8045 17.3266 54.6785 17.3232L52.9797 17.2654L56.636 20.6698C54.5628 20.4928 50.937 20.4383 45.9802 21.3302C39.9475 22.4197 36.7644 24.9764 35.8554 25.8139ZM130.781 46.8839C130.801 46.9895 130.798 47.0981 130.773 47.2025C130.747 47.3069 130.7 47.4049 130.635 47.4899C130.63 47.5029 130.625 47.5155 130.618 47.5273C128.469 46.6047 123.4 46.06 116.227 46.0872C116.588 44.5212 117.344 43.888 117.344 43.888C117.286 43.922 115.601 44.3782 115.499 46.7545C115.379 49.478 116.254 50.2066 116.282 50.2475C116.061 49.1625 115.996 48.0518 116.088 46.9486C116.088 46.8328 116.115 46.7205 116.128 46.6081C117.746 46.7068 127.237 47.3196 129.668 48.2797C131.03 48.8176 131.03 49.5325 130.941 49.8934C130.924 49.9445 130.904 49.9989 130.883 50.0534C130.872 50.0779 130.86 50.1018 130.846 50.1249C130.781 50.2849 130.713 50.4653 130.624 50.6287L130.607 50.6594C129.763 51.7692 126.754 48.9572 123.53 49.141C122.818 49.1819 122.716 49.461 122.706 49.4542C122.696 49.4474 127.976 50.3802 127.319 53.1821C127.107 53.6271 126.851 54.0492 126.553 54.4417C126.212 54.8843 125.47 55.0307 124.258 55.0307C123.101 55.0307 121.405 54.7651 119.06 54.3974L118.879 54.3702C115.046 53.771 114.515 52.7565 114.045 51.8577C113.922 51.6116 113.781 51.375 113.623 51.1496C112.687 49.8389 111.89 48.9844 107.461 47.9426C105.779 47.5443 104.805 47.3911 103.998 47.3911C103.028 47.3911 102.347 47.6158 101.316 47.9597C99.5932 48.5436 97.8323 49.0077 96.0457 49.3487C95.2869 49.5012 94.5149 49.5776 93.7409 49.5768C89.2675 49.5768 85.8869 47.0269 85.4681 46.6932C85.3982 46.6219 85.3164 46.5631 85.2264 46.5196C82.2646 42.9688 82.1148 36.2246 82.1148 36.2246C78.0245 39.4352 74.9668 43.7761 73.3211 48.7086C72.412 51.4757 71.6707 54.2952 71.1015 57.1516L71.0402 57.3695C70.4887 59.3066 69.9235 61.305 68.0511 63.3579C67.5132 63.4703 67.1966 63.3919 66.8902 62.8779C65.2765 60.5765 67.2306 50.084 67.6698 47.2175C66.5497 47.5579 61.6269 56.4775 60.0609 59.3611C50.6068 53.4136 47.4441 45.9613 44.5912 39.2239C43.2294 36.051 41.9766 33.0551 40.1654 30.4473C39.1679 29.0714 38.0354 27.7986 36.7848 26.648C37.6768 25.8615 40.6829 23.5465 46.1981 22.5626C53.8614 21.1838 58.311 22.1541 58.3519 22.1643L60.6124 22.6818L56.3399 18.668C60.2345 18.9301 70.155 19.7948 79.9428 22.1847C81.4645 24.3908 84.1574 26.5867 88.9883 28.6089C89.0653 28.6394 89.1472 28.6555 89.23 28.6566C89.6009 28.5691 89.9246 28.344 90.1356 28.0267C90.2684 27.7067 89.7952 27.5842 89.4752 27.448C81.5531 24.1355 79.8134 20.5268 79.3232 17.0339C82.251 19.1276 84.2902 19.4919 88.5355 20.251L88.7262 20.2851C93.1519 21.0749 94.3401 23.3218 94.4014 23.4035C95.0278 24.2206 95.8687 24.7176 96.1785 24.561C96.2568 24.5236 96.0423 24.3159 96.0219 24.2206L105.156 26.9441C105.653 27.1893 105.759 27.2642 106.021 27.3697C108.097 28.2038 108.165 28.6634 108.319 29.2387C108.398 29.5589 108.512 29.8694 108.659 30.1647C109.03 30.9137 110.797 32.2789 121.061 36.7421C122.328 37.2902 123.982 37.9473 124.66 37.9473C124.713 37.9509 124.767 37.9509 124.82 37.9473C125.242 37.886 125.77 37.8043 125.926 37.7566C125.996 37.7388 126.069 37.7296 126.141 37.7294C126.883 37.7294 128.149 38.6554 129.603 39.772C131.578 41.2904 131.346 42.1143 130.965 42.7679C130.196 44.1127 130.481 45.4642 130.781 46.8839ZM67.6834 64.8218C68.1532 65.0193 68.6843 64.5529 68.6843 64.5529Z" fill="#231F20"/>
<path d="M129.198 41.6615C129.433 41.11 129.001 40.7968 128.139 40.2997C127.278 39.8027 126.437 39.3193 126.097 40.1431C125.695 41.0827 129.235 45.4813 129.235 45.4813C129.235 45.4813 127.901 42.6964 127.901 42.1858C127.901 41.6751 128.963 42.2096 129.198 41.6615Z" fill="#231F20"/>
<path d="M97.5947 28.1186L98.2756 28.9016C98.2756 28.9016 96.4066 30.6958 98.616 32.2652C100.931 33.8993 102.426 31.1792 102.426 31.1792C102.426 31.1792 105.095 32.0031 105.959 31.3767C102.15 30.9443 97.833 27.608 97.833 27.608C96.3385 26.43 97.5947 28.1186 97.5947 28.1186Z" fill="#231F20"/>
<path d="M89.5126 22.372C88.7007 22.1259 87.8741 21.9315 87.0376 21.7898C84.6675 21.2553 82.4353 20.2313 80.4841 18.7837C82.7923 21.9464 85.1515 22.3754 87.4291 22.9269C88.1304 23.1005 88.6138 23.3184 89.4309 23.6078C92.3417 24.5916 91.814 27.0769 91.7868 27.1824C91.7774 27.2722 91.7885 27.3629 91.8192 27.4478C91.8498 27.5327 91.8993 27.6095 91.9638 27.6727C92.0617 27.7436 92.178 27.7849 92.2987 27.7915C92.4195 27.7981 92.5396 27.7699 92.6447 27.7101C92.8013 27.6522 92.8489 27.3697 92.8489 27.3697C93.0736 26.1168 92.6889 23.4478 89.5126 22.372Z" fill="#231F20"/>
<path d="M8.40552 9.31274C18.4554 12.6116 34.1566 23.7611 35.8861 25.654C40.911 21.2589 49.7046 19.686 57.2386 20.7857C54.7262 18.4298 53.1533 17.1736 53.1533 17.1736C53.1533 17.1736 62.2602 17.017 79.221 20.9423" stroke="#231F20" stroke-width="3.69" stroke-miterlimit="10"/>
<path d="M98.119 28.7043C98.119 28.7043 96.4985 30.25 98.2756 32.0305C98.3028 32.0032 98.3301 31.976 98.2518 31.8739C97.0977 30.3793 98.1735 29.2559 98.4084 28.9154C98.3214 28.8329 98.2241 28.762 98.119 28.7043Z" fill="white"/>
<path d="M100.029 30.301C100.029 30.4357 99.989 30.5673 99.9141 30.6793C99.8393 30.7913 99.733 30.8785 99.6086 30.9301C99.4841 30.9816 99.3472 30.9951 99.2152 30.9688C99.0831 30.9425 98.9618 30.8777 98.8665 30.7825C98.7713 30.6872 98.7065 30.5659 98.6802 30.4338C98.6539 30.3018 98.6674 30.1649 98.7189 30.0404C98.7705 29.916 98.8578 29.8097 98.9697 29.7349C99.0817 29.6601 99.2133 29.6201 99.348 29.6201C99.5286 29.6201 99.7018 29.6919 99.8295 29.8195C99.9572 29.9472 100.029 30.1204 100.029 30.301Z" fill="white"/>
</g>
<path d="M145.927 31.3071V10.7993H159.052V15.5161H151.341V18.688H158.505V23.4048H151.341V31.3071H145.927ZM163.345 15.0649C162.734 15.0649 162.22 14.8507 161.8 14.4224C161.381 13.994 161.171 13.4744 161.171 12.8638C161.171 12.2531 161.381 11.7336 161.8 11.3052C162.22 10.8768 162.734 10.6626 163.345 10.6626C163.965 10.6626 164.484 10.8768 164.904 11.3052C165.332 11.7336 165.546 12.2531 165.546 12.8638C165.546 13.4744 165.332 13.994 164.904 14.4224C164.484 14.8507 163.965 15.0649 163.345 15.0649ZM165.874 31.3071H160.83V17.6353H165.874V31.3071ZM167.665 30.145L168.705 25.9888C168.951 26.2804 169.315 26.563 169.798 26.8364C170.29 27.1099 170.824 27.3332 171.398 27.5063C171.972 27.6704 172.501 27.7524 172.984 27.7524C173.348 27.7524 173.626 27.6978 173.818 27.5884C174.009 27.479 174.105 27.3241 174.105 27.1235C174.105 26.9139 174.014 26.7362 173.831 26.5903C173.649 26.4354 173.403 26.2941 173.093 26.1665C172.792 26.0389 172.446 25.9067 172.054 25.77C171.471 25.5604 170.856 25.3052 170.208 25.0044C169.57 24.6945 169.028 24.2752 168.581 23.7466C168.135 23.2088 167.912 22.4933 167.912 21.6001C167.912 20.7342 168.139 19.9868 168.595 19.3579C169.06 18.7199 169.712 18.2277 170.55 17.8813C171.398 17.535 172.391 17.3618 173.531 17.3618C175.436 17.3618 177.354 17.8403 179.287 18.7974L177.878 22.6392C177.587 22.384 177.204 22.1424 176.73 21.9146C176.256 21.6867 175.768 21.4998 175.267 21.354C174.775 21.2082 174.346 21.1353 173.982 21.1353C173.681 21.1353 173.453 21.1899 173.298 21.2993C173.152 21.3996 173.08 21.5409 173.08 21.7231C173.08 21.9237 173.166 22.1014 173.339 22.2563C173.522 22.4022 173.763 22.5389 174.064 22.6665C174.374 22.785 174.711 22.9126 175.076 23.0493C175.686 23.259 176.315 23.5187 176.962 23.8286C177.609 24.1294 178.156 24.5487 178.603 25.0864C179.059 25.6151 179.287 26.3306 179.287 27.2329C179.287 28.117 179.04 28.8872 178.548 29.5435C178.065 30.1906 177.377 30.6919 176.484 31.0474C175.6 31.4028 174.552 31.5806 173.339 31.5806C171.316 31.5806 169.425 31.1021 167.665 30.145ZM181.064 31.3071V10.7993H186.109V18.9478C187.066 17.8905 188.356 17.3618 189.978 17.3618C191.637 17.3618 192.931 17.8905 193.861 18.9478C194.8 19.9959 195.269 21.4588 195.269 23.3364V31.3071H190.224V24.7173C190.224 23.8058 190.046 23.104 189.691 22.6118C189.345 22.1196 188.848 21.8735 188.201 21.8735C187.535 21.8735 187.02 22.1242 186.656 22.6255C186.291 23.1177 186.109 23.8149 186.109 24.7173V31.3071H181.064ZM210.746 29.8716C209.041 31.0109 207.191 31.5806 205.195 31.5806C203.654 31.5806 202.269 31.2616 201.039 30.6235C199.817 29.9764 198.846 29.0968 198.126 27.9849C197.415 26.8729 197.06 25.6242 197.06 24.2388C197.06 22.9263 197.379 21.755 198.017 20.7251C198.655 19.686 199.521 18.8657 200.615 18.2642C201.718 17.6626 202.962 17.3618 204.347 17.3618C205.796 17.3618 207.068 17.6945 208.162 18.3599C209.255 19.0252 210.108 19.9504 210.718 21.1353C211.329 22.3201 211.634 23.6965 211.634 25.2642V25.7017H202.474C202.638 26.0571 202.866 26.3807 203.158 26.6724C203.449 26.9549 203.814 27.1828 204.251 27.356C204.689 27.5291 205.199 27.6157 205.783 27.6157C207.068 27.6157 208.285 27.2056 209.433 26.3853L210.746 29.8716ZM202.242 23.6509H207.013C206.968 23.2225 206.835 22.8442 206.617 22.5161C206.407 22.188 206.124 21.9328 205.769 21.7505C205.423 21.5591 205.035 21.4634 204.607 21.4634C204.169 21.4634 203.787 21.5636 203.458 21.7642C203.13 21.9647 202.861 22.229 202.652 22.5571C202.451 22.8853 202.315 23.2498 202.242 23.6509ZM218.73 31.3071H213.685V17.6353H218.06L218.224 19.7817C218.68 19.0161 219.272 18.4237 220.001 18.0044C220.731 17.576 221.565 17.3618 222.503 17.3618C222.822 17.3618 223.146 17.3892 223.474 17.4438C223.802 17.4894 224.135 17.5623 224.472 17.6626L223.843 22.2017C223.178 21.9829 222.558 21.8735 221.984 21.8735C221.318 21.8735 220.74 22.0148 220.247 22.2974C219.764 22.5708 219.391 22.9582 219.126 23.4595C218.862 23.9608 218.73 24.5578 218.73 25.2505V31.3071ZM224.951 30.145L225.99 25.9888C226.236 26.2804 226.6 26.563 227.083 26.8364C227.576 27.1099 228.109 27.3332 228.683 27.5063C229.257 27.6704 229.786 27.7524 230.269 27.7524C230.634 27.7524 230.912 27.6978 231.103 27.5884C231.294 27.479 231.39 27.3241 231.39 27.1235C231.39 26.9139 231.299 26.7362 231.117 26.5903C230.934 26.4354 230.688 26.2941 230.378 26.1665C230.078 26.0389 229.731 25.9067 229.339 25.77C228.756 25.5604 228.141 25.3052 227.494 25.0044C226.856 24.6945 226.313 24.2752 225.867 23.7466C225.42 23.2088 225.197 22.4933 225.197 21.6001C225.197 20.7342 225.425 19.9868 225.88 19.3579C226.345 18.7199 226.997 18.2277 227.835 17.8813C228.683 17.535 229.677 17.3618 230.816 17.3618C232.721 17.3618 234.639 17.8403 236.572 18.7974L235.164 22.6392C234.872 22.384 234.489 22.1424 234.015 21.9146C233.541 21.6867 233.053 21.4998 232.552 21.354C232.06 21.2082 231.632 21.1353 231.267 21.1353C230.966 21.1353 230.738 21.1899 230.583 21.2993C230.438 21.3996 230.365 21.5409 230.365 21.7231C230.365 21.9237 230.451 22.1014 230.624 22.2563C230.807 22.4022 231.048 22.5389 231.349 22.6665C231.659 22.785 231.996 22.9126 232.361 23.0493C232.971 23.259 233.6 23.5187 234.247 23.8286C234.895 24.1294 235.442 24.5487 235.888 25.0864C236.344 25.6151 236.572 26.3306 236.572 27.2329C236.572 28.117 236.326 28.8872 235.833 29.5435C235.35 30.1906 234.662 30.6919 233.769 31.0474C232.885 31.4028 231.837 31.5806 230.624 31.5806C228.601 31.5806 226.71 31.1021 224.951 30.145ZM141.415 65.229L141.142 60.5122C142.701 60.5122 143.854 60.1522 144.601 59.4321C145.348 58.7121 145.722 57.6092 145.722 56.1235V39.7993H151.136V56.1235C151.136 58.311 150.813 60.0701 150.165 61.4009C149.518 62.7407 148.479 63.7114 147.048 64.313C145.626 64.9237 143.749 65.229 141.415 65.229ZM167.816 60.3071H163.824L163.66 58.1333C163.186 58.9354 162.557 59.5461 161.773 59.9653C160.989 60.3755 160.073 60.5806 159.025 60.5806C157.33 60.5806 156.003 60.0519 155.046 58.9946C154.089 57.9373 153.611 56.4744 153.611 54.606V46.6353H158.656V53.2251C158.656 54.1366 158.829 54.8384 159.175 55.3306C159.531 55.8228 160.032 56.0688 160.679 56.0688C161.345 56.0688 161.859 55.8228 162.224 55.3306C162.589 54.8293 162.771 54.1274 162.771 53.2251V46.6353H167.816V60.3071ZM184.769 60.3071H179.724V53.7173C179.724 52.8058 179.546 52.104 179.191 51.6118C178.845 51.1196 178.348 50.8735 177.701 50.8735C177.035 50.8735 176.52 51.1242 176.156 51.6255C175.791 52.1177 175.609 52.8149 175.609 53.7173V60.3071H170.564V46.6353H174.556L174.72 48.8091C175.203 48.007 175.832 47.4009 176.607 46.9907C177.391 46.5715 178.307 46.3618 179.355 46.3618C181.05 46.3618 182.376 46.8905 183.333 47.9478C184.29 48.9959 184.769 50.4588 184.769 52.3364V60.3071ZM189.759 44.0649C189.149 44.0649 188.634 43.8507 188.214 43.4224C187.795 42.994 187.585 42.4744 187.585 41.8638C187.585 41.2531 187.795 40.7336 188.214 40.3052C188.634 39.8768 189.149 39.6626 189.759 39.6626C190.379 39.6626 190.899 39.8768 191.318 40.3052C191.746 40.7336 191.96 41.2531 191.96 41.8638C191.96 42.4744 191.746 42.994 191.318 43.4224C190.899 43.8507 190.379 44.0649 189.759 44.0649ZM192.289 60.3071H187.244V46.6353H192.289V60.3071ZM201.818 60.5806C200.378 60.5806 199.093 60.2752 197.962 59.6646C196.841 59.0448 195.957 58.2017 195.31 57.1353C194.672 56.0597 194.353 54.8384 194.353 53.4712C194.353 52.104 194.672 50.8872 195.31 49.8208C195.957 48.7453 196.841 47.9022 197.962 47.2915C199.093 46.6717 200.378 46.3618 201.818 46.3618C203.249 46.3618 204.52 46.6717 205.632 47.2915C206.753 47.9022 207.633 48.7453 208.271 49.8208C208.909 50.8872 209.228 52.104 209.228 53.4712C209.228 54.8384 208.909 56.0597 208.271 57.1353C207.633 58.2017 206.753 59.0448 205.632 59.6646C204.52 60.2752 203.249 60.5806 201.818 60.5806ZM201.79 56.0688C202.228 56.0688 202.615 55.9595 202.953 55.7407C203.299 55.5129 203.568 55.203 203.759 54.811C203.96 54.41 204.06 53.9543 204.06 53.4438C204.06 52.9517 203.96 52.5142 203.759 52.1313C203.568 51.7394 203.299 51.4341 202.953 51.2153C202.615 50.9875 202.228 50.8735 201.79 50.8735C201.353 50.8735 200.961 50.9875 200.615 51.2153C200.277 51.4341 200.009 51.7394 199.808 52.1313C199.617 52.5142 199.521 52.9517 199.521 53.4438C199.521 53.9543 199.617 54.41 199.808 54.811C200.009 55.203 200.277 55.5129 200.615 55.7407C200.961 55.9595 201.353 56.0688 201.79 56.0688ZM216.324 60.3071H211.279V46.6353H215.654L215.818 48.7817C216.274 48.0161 216.866 47.4237 217.595 47.0044C218.324 46.576 219.158 46.3618 220.097 46.3618C220.416 46.3618 220.74 46.3892 221.068 46.4438C221.396 46.4894 221.729 46.5623 222.066 46.6626L221.437 51.2017C220.772 50.9829 220.152 50.8735 219.578 50.8735C218.912 50.8735 218.333 51.0148 217.841 51.2974C217.358 51.5708 216.984 51.9582 216.72 52.4595C216.456 52.9608 216.324 53.5578 216.324 54.2505V60.3071ZM234.931 60.3071H229.517V39.7993H234.931V47.8657H242.081V39.7993H247.496V60.3071H242.081V52.5825H234.931V60.3071ZM252.759 44.0649C252.149 44.0649 251.634 43.8507 251.214 43.4224C250.795 42.994 250.585 42.4744 250.585 41.8638C250.585 41.2531 250.795 40.7336 251.214 40.3052C251.634 39.8768 252.149 39.6626 252.759 39.6626C253.379 39.6626 253.899 39.8768 254.318 40.3052C254.746 40.7336 254.96 41.2531 254.96 41.8638C254.96 42.4744 254.746 42.994 254.318 43.4224C253.899 43.8507 253.379 44.0649 252.759 44.0649ZM255.289 60.3071H250.244V46.6353H255.289V60.3071ZM263.492 60.5806C262.307 60.5806 261.249 60.2752 260.32 59.6646C259.399 59.0448 258.675 58.2017 258.146 57.1353C257.617 56.0597 257.353 54.8384 257.353 53.4712C257.353 52.0949 257.617 50.8735 258.146 49.8071C258.675 48.7407 259.399 47.9022 260.32 47.2915C261.249 46.6717 262.307 46.3618 263.492 46.3618C264.394 46.3618 265.223 46.5441 265.98 46.9087C266.746 47.2733 267.402 47.7791 267.949 48.4263L268.181 46.6353H272.597V59.9106C272.597 61.4054 272.246 62.7179 271.544 63.8481C270.843 64.9784 269.863 65.8534 268.605 66.4731C267.347 67.1021 265.88 67.4165 264.203 67.4165C261.915 67.4165 259.787 66.7284 257.818 65.3521L259.8 61.2095C260.985 62.3397 262.32 62.9048 263.806 62.9048C264.535 62.9048 265.178 62.7681 265.734 62.4946C266.299 62.2212 266.741 61.8384 267.06 61.3462C267.388 60.8631 267.552 60.3117 267.552 59.6919V58.9399C267.024 59.4595 266.413 59.8651 265.72 60.1567C265.037 60.4393 264.294 60.5806 263.492 60.5806ZM265.05 56.0688C265.515 56.0688 265.934 55.9731 266.308 55.7817C266.691 55.5812 266.992 55.3032 267.21 54.9478C267.438 54.5923 267.552 54.1867 267.552 53.731V53.1704C267.552 52.7238 267.438 52.3273 267.21 51.981C266.983 51.6346 266.677 51.3657 266.294 51.1743C265.921 50.9738 265.506 50.8735 265.05 50.8735C264.567 50.8735 264.134 50.9875 263.751 51.2153C263.369 51.4341 263.068 51.7394 262.849 52.1313C262.63 52.5233 262.521 52.9699 262.521 53.4712C262.521 53.9725 262.63 54.4191 262.849 54.811C263.068 55.203 263.369 55.5129 263.751 55.7407C264.134 55.9595 264.567 56.0688 265.05 56.0688ZM275.208 60.3071V39.7993H280.253V47.9478C281.21 46.8905 282.5 46.3618 284.122 46.3618C285.781 46.3618 287.076 46.8905 288.005 47.9478C288.944 48.9959 289.414 50.4588 289.414 52.3364V60.3071H284.369V53.7173C284.369 52.8058 284.191 52.104 283.835 51.6118C283.489 51.1196 282.992 50.8735 282.345 50.8735C281.68 50.8735 281.165 51.1242 280.8 51.6255C280.436 52.1177 280.253 52.8149 280.253 53.7173V60.3071H275.208Z" fill="white"/>
<defs>
<clipPath id="clip0_5083_8010">
<rect width="134.56" height="65.4161" fill="white" transform="translate(0 2.59912)"/>
</clipPath>
</defs>
</svg>
